<?xml version="1.0" encoding="utf-8"?>
<!-- Generator: Adobe Illustrator 23.0.5, SVG Export Plug-In . SVG Version: 6.00 Build 0)  -->
<svg version="1.1" id="Layer_1" xmlns="http://www.w3.org/2000/svg" xmlns:xlink="http://www.w3.org/1999/xlink" x="0px" y="0px"
	 viewBox="0 0 339.9 55.2" style="enable-background:new 0 0 339.9 55.2;" xml:space="preserve">
<style type="text/css">
	.st0{fill:#043740;}
</style>
<g>
	<path class="st0" d="M97.3,43.6l-2.9-7.2H80.7l-2.9,7.2h-7.2l13.8-32.5h6.5l13.8,32.5H97.3z M87.6,19.6l-4.3,10.5h8.6L87.6,19.6z"
		/>
	<path class="st0" d="M129.3,43.6l-6.9-10.3h-5.6v10.3h-7.1V11.3h14.8c7.6,0,12.2,4,12.2,10.6V22c0,5.2-2.8,8.5-6.9,10l7.9,11.5
		L129.3,43.6L129.3,43.6z M129.5,22.3c0-3-2.1-4.6-5.6-4.6h-7.1V27h7.2C127.5,27,129.5,25.1,129.5,22.3L129.5,22.3z"/>
	<polygon class="st0" points="157.7,17.8 157.7,43.6 150.6,43.6 150.6,17.8 140.8,17.8 140.8,11.3 167.5,11.3 167.5,17.8 	"/>
	<polygon class="st0" points="172.9,43.6 172.9,11.3 180,11.3 180,37.1 196.1,37.1 196.1,43.6 	"/>
	<rect x="201.8" y="11.3" class="st0" width="7.1" height="32.3"/>
	<polygon class="st0" points="239.6,43.6 224,23 224,43.6 217,43.6 217,11.3 223.5,11.3 238.6,31.2 238.6,11.3 245.6,11.3 
		245.6,43.6 	"/>
	<path class="st0" d="M268.5,44.1c-9.5,0-16.5-7.3-16.5-16.6v-0.1c0-9.2,6.9-16.7,16.8-16.7c6.1,0,9.7,2,12.7,5l-4.5,5.2
		c-2.5-2.3-5-3.6-8.3-3.6c-5.4,0-9.4,4.5-9.4,10v0.1c0,5.5,3.8,10.1,9.4,10.1c3.7,0,5.9-1.5,8.5-3.8l4.5,4.6
		C278.4,41.9,274.7,44.1,268.5,44.1"/>
	<path class="st0" d="M302.1,44.1c-10,0-17.1-7.4-17.1-16.6v-0.1c0-9.2,7.2-16.7,17.2-16.7s17.1,7.4,17.1,16.6v0.1
		C319.3,36.6,312.1,44.1,302.1,44.1 M311.9,27.4c0-5.5-4.1-10.1-9.8-10.1c-5.7,0-9.7,4.5-9.7,10v0.1c0,5.5,4.1,10.1,9.8,10.1
		C307.9,37.6,311.9,33.1,311.9,27.4L311.9,27.4z"/>
	<path class="st0" d="M328.2,20l-0.6-1.4h-2.7l-0.6,1.4h-1.4l2.8-6.5h1.3l2.8,6.5H328.2z M326.2,15.2l-0.9,2.1h1.7L326.2,15.2z"/>
	<polygon class="st0" points="334.9,12.7 330.8,21.2 329.6,21.2 333.7,12.7 	"/>
	<path class="st0" d="M337.5,20.1c-1,0-2-0.3-2.7-1l0.8-1c0.6,0.5,1.2,0.8,1.9,0.8c0.6,0,0.9-0.2,0.9-0.6l0,0c0-0.4-0.2-0.5-1.3-0.8
		c-1.3-0.3-2.1-0.7-2.1-2l0,0c0-1.2,0.9-1.9,2.2-1.9c0.9,0,1.7,0.3,2.4,0.8l-0.7,1.1c-0.6-0.4-1.1-0.6-1.7-0.6
		c-0.5,0-0.8,0.2-0.8,0.6l0,0c0,0.4,0.3,0.6,1.4,0.8c1.3,0.3,2,0.8,2,1.9l0,0C339.9,19.4,338.9,20.1,337.5,20.1"/>
	<path class="st0" d="M24.4,15.6c2.6-0.7,5.3-0.5,7.7,0.4l7.6-13.2C33.9,0,27.1-0.8,20.4,0.9c-14.6,4-23.3,19-19.5,33.6l14.5-4.9
		C14.3,23.4,18.1,17.3,24.4,15.6"/>
	<path class="st0" d="M39.4,23.8l15.1-2.4c-0.1-0.3-0.1-0.6-0.2-1c-1.9-6.6-6-12.1-11.3-15.7l-7.6,13.2
		C37.2,19.4,38.6,21.4,39.4,23.8"/>
	<path class="st0" d="M40,27.6c0,2.3-0.6,4.5-1.8,6.4l11.7,9.8c3.8-5.3,5.7-11.8,5.1-18.5L40,27.6z"/>
	<path class="st0" d="M16.6,33.3L2.1,38.2C5.8,46.9,13.5,53,22.5,54.7l1.7-15.2C21,38.6,18.2,36.4,16.6,33.3"/>
	<path class="st0" d="M30.8,39.6C29.9,39.8,29,40,28.1,40l-1.7,15.2c2.8,0.1,5.6-0.2,8.4-0.9c5-1.3,9.3-4,12.7-7.5L35.7,37
		C34.4,38.2,32.7,39.1,30.8,39.6"/>
</g>
</svg>
