<?xml version="1.0" standalone="no"?>
<!DOCTYPE svg PUBLIC "-//W3C//DTD SVG 20010904//EN"
 "http://www.w3.org/TR/2001/REC-SVG-20010904/DTD/svg10.dtd">
<svg version="1.0" xmlns="http://www.w3.org/2000/svg"
 width="1280.000000pt" height="138.000000pt" viewBox="0 0 1280.000000 138.000000"
 preserveAspectRatio="xMidYMid meet">
<metadata>
Created by potrace 1.16, written by Peter Selinger 2001-2019
</metadata>
<g transform="translate(0.000000,138.000000) scale(0.100000,-0.100000)"
fill="#000000" stroke="none">
<path d="M1822 1263 c3 -80 5 -88 24 -91 14 -2 24 5 32 23 6 14 17 25 23 25 7
0 21 7 31 17 17 15 19 14 29 -16 29 -82 157 -64 160 23 1 30 1 29 12 -9 7 -22
16 -46 20 -53 13 -19 45 -14 58 10 l12 22 8 -22 c9 -25 50 -30 67 -9 6 7 12
46 14 87 2 61 0 75 -12 75 -8 0 -20 -11 -27 -25 l-12 -24 -10 27 c-12 31 -36
35 -53 8 -11 -18 -12 -18 -27 1 -20 24 -51 15 -51 -15 0 -18 -2 -18 -25 7 -31
33 -74 34 -111 2 l-28 -23 -19 23 c-15 20 -28 24 -68 24 l-50 0 3 -87z"/>
<path d="M2334 1337 c-3 -8 -4 -47 -2 -88 l3 -74 49 -3 c27 -2 53 1 59 7 7 7
17 7 30 -1 17 -9 24 -7 37 10 16 19 17 19 28 1 15 -23 50 -25 58 -4 4 8 1 22
-6 30 -9 11 -9 22 1 50 10 26 10 41 3 53 -15 24 -81 38 -116 24 -16 -6 -30 -6
-34 -1 -9 15 -104 11 -110 -4z"/>
<path d="M2620 1330 c-6 -11 -10 -51 -8 -88 l3 -67 55 0 c49 0 55 2 58 23 3
19 -1 22 -30 23 -30 1 -31 2 -8 8 17 5 25 14 26 31 1 14 5 34 10 45 7 15 10 0
14 -55 l5 -75 46 -3 c66 -4 99 24 99 84 0 62 -32 94 -94 94 -25 0 -48 -5 -51
-10 -4 -6 -11 -8 -16 -4 -5 3 -29 7 -54 10 -37 3 -46 1 -55 -16z"/>
<path d="M2954 1336 c-3 -7 -4 -46 -2 -87 l3 -74 49 -3 c57 -4 86 16 86 60 0
17 4 27 10 23 6 -3 10 -18 10 -33 0 -36 13 -55 35 -50 13 2 25 25 42 78 12 41
21 81 18 88 -6 17 -44 15 -51 -3 -5 -13 -9 -13 -22 -3 -22 18 -171 22 -178 4z"/>
<path d="M466 1189 c-120 -24 -267 -119 -342 -221 -85 -115 -124 -236 -124
-383 0 -93 11 -135 36 -135 15 0 251 75 284 90 10 5 17 28 21 66 4 32 12 72
18 88 19 48 70 105 119 134 42 24 57 27 140 27 l93 0 65 105 c95 154 101 167
83 184 -46 43 -274 69 -393 45z"/>
<path d="M918 1083 c-8 -10 -45 -74 -82 -142 -74 -135 -73 -126 -21 -201 53
-77 45 -72 100 -61 84 17 198 34 235 35 35 1 35 1 33 43 -3 70 -65 176 -155
266 -42 42 -81 77 -86 77 -5 0 -16 -8 -24 -17z"/>
<path d="M6455 961 c-104 -29 -206 -116 -248 -210 -17 -37 -21 -66 -21 -148 1
-90 4 -107 29 -158 37 -76 76 -119 144 -158 149 -88 319 -73 459 40 88 72 127
169 120 302 -4 67 -10 97 -31 137 -53 104 -125 163 -235 195 -81 23 -138 23
-217 0z m178 -171 c64 -24 91 -50 112 -110 17 -49 12 -136 -10 -180 -18 -34
-64 -77 -98 -89 -63 -24 -163 -6 -210 37 -73 65 -80 238 -13 301 26 25 109 60
143 61 12 0 46 -9 76 -20z"/>
<path d="M1844 960 c-24 -9 -29 -20 -117 -230 -36 -85 -86 -202 -112 -260 -68
-152 -86 -208 -72 -217 6 -4 43 -7 80 -7 78 0 77 -1 113 94 l22 55 138 3 c87
2 141 -1 148 -8 6 -6 22 -39 36 -73 l25 -62 79 -3 c44 -2 83 1 89 7 6 6 -34
110 -112 293 -146 340 -171 389 -202 405 -27 14 -84 16 -115 3z"/>
<path d="M5703 951 c-202 -69 -297 -313 -202 -515 89 -190 357 -265 533 -150
56 36 86 65 86 81 0 14 -86 103 -99 103 -4 0 -31 -16 -61 -35 -46 -29 -63 -35
-111 -35 -67 0 -114 18 -150 57 -55 59 -69 125 -44 210 21 71 65 116 131 132
58 15 91 8 171 -32 l63 -31 41 39 c22 22 45 48 51 58 21 39 -48 97 -145 123
-73 19 -200 17 -264 -5z"/>
<path d="M2390 945 c-13 -15 -15 -69 -12 -349 1 -181 6 -333 10 -337 12 -13
126 -20 142 -10 11 8 16 37 20 113 l5 103 43 3 c37 3 46 -1 72 -29 16 -18 46
-60 66 -94 60 -98 55 -95 156 -95 109 0 110 4 32 115 -30 44 -62 92 -70 107
-14 26 -13 28 30 58 68 49 91 99 91 197 0 74 -3 85 -30 125 -21 28 -50 53 -89
72 -57 29 -60 30 -254 34 -180 4 -199 3 -212 -13z m371 -168 c44 -30 52 -82
17 -120 -21 -24 -30 -26 -113 -28 -49 -1 -96 -1 -102 0 -9 1 -13 25 -13 86 l0
85 89 0 c75 0 93 -3 122 -23z"/>
<path d="M3080 947 c-30 -15 -48 -87 -31 -124 10 -22 15 -23 111 -23 l100 0 0
-259 c0 -143 3 -266 6 -275 5 -13 22 -16 84 -16 76 0 78 1 85 27 3 14 5 137 4
272 l-2 246 94 3 c51 1 99 8 106 14 17 13 17 120 1 136 -17 17 -523 17 -558
-1z"/>
<path d="M3755 950 c-10 -16 -7 -682 3 -692 5 -5 121 -7 258 -6 l249 3 0 70 0
70 -170 5 -170 5 -5 275 -5 275 -77 3 c-47 2 -79 -1 -83 -8z"/>
<path d="M4383 948 c-5 -8 -8 -152 -5 -356 l4 -343 77 3 76 3 8 230 c10 313 6
453 -13 465 -22 14 -136 12 -147 -2z"/>
<path d="M4712 948 c-13 -13 -16 -564 -4 -648 l7 -45 78 -3 c57 -2 77 0 78 10
0 7 0 100 -1 207 -1 224 -8 219 93 86 170 -224 208 -273 225 -288 13 -12 38
-17 81 -18 34 -1 64 0 66 2 7 8 8 686 1 698 -10 15 -139 14 -154 -1 -8 -8 -12
-66 -12 -195 0 -114 -4 -183 -10 -183 -5 0 -20 15 -32 34 -41 61 -240 320
-260 339 -24 20 -137 24 -156 5z"/>
<path d="M7227 902 c-15 -15 -32 -42 -38 -60 -15 -42 -28 -37 -58 21 -36 73
-67 62 -110 -42 -28 -66 -17 -86 30 -58 40 22 46 22 81 -8 16 -14 35 -25 42
-25 7 0 31 28 52 63 l39 62 5 -50 c5 -49 6 -50 41 -53 23 -2 43 3 58 15 21 17
22 24 16 75 -6 49 -11 58 -35 68 -16 7 -37 9 -48 6 -11 -4 -23 -2 -27 4 -10
16 -19 12 -48 -18z"/>
<path d="M1139 656 c-2 -3 -54 -12 -114 -21 -144 -22 -156 -28 -170 -90 -6
-27 -15 -60 -19 -71 -6 -18 6 -32 76 -90 46 -37 97 -83 115 -101 48 -51 70
-43 115 42 45 84 70 189 66 270 -3 59 -4 60 -33 63 -17 2 -33 1 -36 -2z"/>
<path d="M305 471 c-11 -4 -73 -27 -137 -50 -136 -50 -137 -51 -81 -138 48
-76 136 -161 206 -201 73 -41 188 -85 197 -75 9 9 40 242 40 294 0 33 -6 41
-65 84 -35 26 -71 58 -80 71 -16 24 -43 29 -80 15z"/>
<path d="M732 379 c-18 -12 -54 -27 -80 -33 l-47 -12 -11 -90 c-6 -49 -15
-124 -18 -166 l-8 -78 59 0 c32 0 86 7 118 15 123 32 289 131 283 170 -4 23
-224 215 -247 215 -9 0 -31 -10 -49 -21z"/>
</g>
</svg>
