<?xml version="1.0" standalone="no"?>
<!DOCTYPE svg PUBLIC "-//W3C//DTD SVG 20010904//EN"
 "http://www.w3.org/TR/2001/REC-SVG-20010904/DTD/svg10.dtd">
<svg version="1.0" xmlns="http://www.w3.org/2000/svg"
 width="1280.000000pt" height="156.000000pt" viewBox="0 0 1280.000000 156.000000"
 preserveAspectRatio="xMidYMid meet">
<metadata>
Created by potrace 1.16, written by Peter Selinger 2001-2019
</metadata>
<g transform="translate(0.000000,156.000000) scale(0.100000,-0.100000)"
fill="#000000" stroke="none">
<path d="M651 1549 c-230 -39 -422 -173 -551 -385 -73 -121 -111 -316 -92
-473 6 -46 15 -88 20 -93 8 -8 64 7 181 46 94 31 180 56 190 56 29 0 41 30 41
102 0 111 76 229 185 286 46 25 60 27 168 27 l118 1 69 109 c128 206 142 233
130 254 -11 22 -82 45 -204 67 -89 15 -173 16 -255 3z"/>
<path d="M1181 1381 c-12 -16 -21 -31 -21 -34 0 -8 -140 -251 -151 -262 -17
-17 -8 -39 45 -115 l53 -75 49 0 c62 1 321 35 353 47 20 7 22 13 17 46 -10 53
-69 175 -120 246 -56 78 -159 176 -185 176 -11 0 -29 -13 -40 -29z"/>
<path d="M7095 1226 c-96 -30 -190 -107 -231 -188 -63 -124 -75 -298 -30 -431
56 -165 139 -241 310 -284 177 -43 399 58 469 215 57 126 58 358 2 480 -42 93
-119 160 -228 201 -67 24 -224 29 -292 7z m223 -190 c91 -47 141 -200 112
-341 -23 -111 -69 -167 -153 -185 -74 -17 -124 -2 -175 54 -50 55 -64 103 -64
223 1 126 32 198 107 244 37 23 133 26 173 5z"/>
<path d="M9214 1206 c-167 -78 -249 -207 -261 -408 -17 -291 164 -482 457
-481 150 1 289 59 311 131 16 53 9 367 -9 384 -10 10 -54 13 -168 13 -179 0
-174 3 -174 -92 0 -80 15 -97 79 -90 68 7 71 4 71 -73 0 -66 -1 -68 -30 -80
-64 -26 -182 4 -242 63 -52 51 -68 97 -68 199 0 83 17 143 57 200 55 81 180
104 289 54 31 -14 62 -26 69 -26 23 0 107 107 101 127 -8 24 -61 59 -133 89
-49 20 -75 24 -168 23 -104 0 -114 -2 -181 -33z"/>
<path d="M10488 1233 c-14 -2 -31 -10 -36 -16 -6 -7 -12 -134 -14 -302 -3
-270 -4 -293 -24 -329 -32 -62 -62 -79 -135 -79 -70 1 -101 18 -134 74 -18 31
-20 57 -25 329 -3 162 -9 301 -13 308 -6 8 -38 12 -102 12 -75 0 -94 -3 -99
-16 -11 -28 -6 -533 5 -604 16 -92 62 -174 125 -222 73 -57 131 -73 249 -72
85 0 109 4 156 26 30 14 71 40 92 57 46 41 94 138 107 216 12 76 18 552 7 582
-5 13 -18 25 -30 27 -42 9 -102 13 -129 9z"/>
<path d="M10908 1233 c-53 -8 -53 -2 -50 -456 1 -291 6 -424 13 -434 17 -20
172 -18 193 3 14 14 16 67 16 438 0 327 -3 426 -12 433 -15 12 -120 22 -160
16z"/>
<path d="M12203 1227 c-7 -11 -5 -876 3 -888 3 -5 131 -9 300 -9 l294 0 0 90
0 90 -190 0 -190 0 0 95 0 94 158 3 157 3 3 75 c1 41 -2 82 -8 90 -8 12 -37
15 -157 15 l-148 0 -3 77 -3 76 181 4 c206 3 200 0 200 89 0 100 10 97 -313
101 -153 2 -281 0 -284 -5z"/>
<path d="M2232 1218 c-17 -17 -17 -859 0 -876 14 -14 325 -16 430 -3 216 28
334 195 252 359 -25 50 -77 102 -102 102 -17 0 -15 4 19 41 54 58 74 135 54
211 -23 89 -94 141 -224 164 -98 17 -412 19 -429 2z m374 -169 c55 -14 79 -51
66 -101 -13 -50 -45 -66 -142 -70 l-85 -3 -3 79 c-2 44 -1 85 2 93 7 16 99 18
162 2z m69 -359 c57 -29 59 -122 2 -164 -24 -18 -42 -21 -130 -21 l-102 0 -3
99 c-1 55 1 102 7 105 17 11 196 -4 226 -19z"/>
<path d="M3098 1211 c-11 -16 -14 -95 -12 -439 1 -231 5 -425 9 -431 4 -8 97
-11 289 -11 252 0 285 2 297 17 18 21 19 137 1 155 -10 10 -60 13 -190 15
l-177 1 0 89 0 88 155 5 155 5 3 79 c2 45 -2 84 -7 89 -6 6 -73 11 -158 12
l-148 2 -3 68 c-2 37 1 72 6 77 6 6 77 9 159 9 82 -1 162 3 176 8 25 10 27 14
27 74 0 104 8 101 -305 105 -253 3 -264 2 -277 -17z"/>
<path d="M3879 1204 c-6 -17 -9 -180 -7 -441 3 -355 5 -415 18 -423 8 -5 52
-10 96 -10 63 0 85 4 95 16 10 12 15 63 17 185 l4 169 149 0 149 0 0 -157 c0
-210 -1 -207 114 -211 56 -2 93 1 102 9 12 9 14 83 14 430 0 494 9 459 -113
459 -109 0 -112 -4 -114 -189 l-1 -146 -151 -3 -151 -3 0 118 c-1 132 -11 201
-31 214 -8 5 -51 9 -97 9 -80 0 -83 -1 -93 -26z"/>
<path d="M5013 1218 c-4 -7 -71 -204 -150 -438 -106 -317 -139 -428 -131 -438
8 -9 37 -12 107 -10 110 3 103 -2 143 128 l23 75 138 3 c115 2 137 0 137 -12
0 -38 52 -176 70 -186 23 -12 170 -13 189 -1 10 7 12 20 7 50 -8 51 -262 809
-277 827 -16 19 -244 20 -256 2z m147 -249 c4 -19 20 -78 34 -132 14 -53 26
-104 26 -112 0 -12 -16 -15 -80 -15 -68 0 -80 3 -80 17 0 9 16 79 37 155 37
140 46 154 63 87z"/>
<path d="M5532 1218 c-7 -7 -12 -16 -12 -21 0 -5 38 -127 84 -271 47 -143 105
-328 131 -409 25 -82 55 -157 66 -168 16 -16 34 -19 127 -19 91 0 111 3 124
18 9 9 53 132 98 272 45 140 106 328 137 418 30 90 52 170 49 178 -4 11 -28
14 -111 14 -100 0 -106 -1 -115 -22 -5 -13 -30 -104 -56 -203 -25 -99 -52
-202 -60 -230 -7 -27 -23 -87 -35 -133 -12 -46 -25 -80 -30 -75 -4 4 -26 80
-49 168 -59 226 -117 431 -130 455 -6 11 -19 24 -30 30 -27 14 -173 13 -188
-2z"/>
<path d="M6423 1213 c-4 -10 -6 -211 -3 -448 l5 -430 94 -3 c60 -2 98 1 107 9
19 16 21 858 2 877 -8 8 -46 12 -105 12 -78 0 -93 -3 -100 -17z"/>
<path d="M7842 1217 c-19 -23 -22 -848 -3 -871 11 -13 32 -16 100 -16 54 0 92
5 99 12 8 8 12 57 12 154 0 91 4 145 11 149 6 4 30 4 55 0 l44 -6 76 -136 c43
-75 85 -144 96 -155 15 -15 34 -18 123 -18 97 0 105 1 105 19 0 19 -13 43
-126 238 -30 50 -54 94 -54 96 0 3 22 21 50 41 142 102 142 343 0 441 -71 49
-117 58 -355 62 -187 4 -223 3 -233 -10z m380 -173 c60 -10 88 -43 88 -103 0
-69 -26 -98 -103 -112 -31 -5 -79 -9 -105 -7 l-47 3 -3 113 -3 112 68 0 c37 0
85 -3 105 -6z"/>
<path d="M11299 1213 c-21 -25 -20 -842 1 -868 13 -15 32 -17 200 -13 153 4
196 9 250 26 172 56 266 189 277 392 9 166 -28 271 -126 364 -94 87 -201 115
-442 116 -124 0 -149 -3 -160 -17z m391 -196 c26 -13 58 -41 75 -66 29 -42 30
-45 30 -164 0 -112 -2 -126 -25 -166 -40 -70 -83 -99 -168 -111 -41 -5 -78 -8
-83 -4 -11 6 -12 527 -1 538 13 14 126 -4 172 -27z"/>
<path d="M1457 844 c-3 -3 -79 -18 -168 -33 l-163 -27 -18 -69 c-32 -119 -32
-122 -8 -142 87 -71 173 -145 222 -190 31 -29 63 -53 71 -53 52 0 148 239 162
408 9 96 1 112 -55 112 -20 0 -39 -3 -43 -6z"/>
<path d="M427 619 c-11 -6 -94 -36 -185 -68 -145 -48 -167 -59 -170 -78 -7
-52 149 -251 255 -324 90 -62 266 -138 296 -126 10 4 18 33 26 89 20 152 32
299 26 316 -3 10 -30 33 -60 51 -30 19 -67 48 -83 66 -15 17 -37 44 -49 58
-25 30 -30 31 -56 16z"/>
<path d="M925 479 c-43 -21 -89 -39 -101 -39 -33 0 -41 -17 -54 -120 -6 -52
-16 -128 -21 -168 -13 -107 -12 -139 7 -146 24 -9 196 21 279 49 81 27 181 81
243 132 62 51 58 70 -30 139 -40 32 -108 88 -151 126 -43 37 -81 68 -85 67 -4
0 -43 -18 -87 -40z"/>
</g>
</svg>
